HIERARCHY
ROOT Hips
{
	OFFSET 0.00000 0.00000 0.00000
	CHANNELS 6 Xposition Yposition Zposition Zrotation Yrotation Xrotation 
	JOINT LHipJoint
	{
		OFFSET 0 0 0
		CHANNELS 3 Zrotation Yrotation Xrotation
		JOINT LeftHip
		{
			OFFSET 1.40001 -1.72600 0.84541
			CHANNELS 3 Zrotation Yrotation Xrotation
			JOINT LeftKnee
			{
				OFFSET 2.34760 -6.44999 0.00000
				CHANNELS 3 Zrotation Yrotation Xrotation
				JOINT LeftAnkle
				{
					OFFSET 2.50650 -6.88655 0.00000
					CHANNELS 3 Zrotation Yrotation Xrotation
					JOINT LeftToe
					{
						OFFSET 0.12464 -0.34243 1.95563
						CHANNELS 3 Zrotation Yrotation Xrotation
						End Site
						{
							OFFSET 0.00000 -0.00000 1.00479
						}
					}
				}
			}
		}
	}
	JOINT RHipJoint
	{
		OFFSET 0 0 0
		CHANNELS 3 Zrotation Yrotation Xrotation
		JOINT RightHip
		{
			OFFSET -1.40958 -1.72600 0.84541
			CHANNELS 3 Zrotation Yrotation Xrotation
			JOINT RightKnee
			{
				OFFSET -2.37905 -6.53640 0.00000
				CHANNELS 3 Zrotation Yrotation Xrotation
				JOINT RightAnkle
				{
					OFFSET -2.50470 -6.88163 0.00000
					CHANNELS 3 Zrotation Yrotation Xrotation
					JOINT RightToe
					{
						OFFSET -0.12236 -0.33619 1.81785
						CHANNELS 3 Zrotation Yrotation Xrotation
						End Site
						{
							OFFSET -0.00000 -0.00000 0.93746
						}
					}
				}
			}
		}
	}
	JOINT lowerback
	{
		OFFSET 0 0 0
		CHANNELS 3 Zrotation Yrotation Xrotation
		JOINT Chest
		{
			OFFSET -0.02146 1.96915 0.26424
			CHANNELS 3 Zrotation Yrotation Xrotation
			JOINT Chest2
			{
				OFFSET 0.01522 1.99484 0.02086
				CHANNELS 3 Zrotation Yrotation Xrotation
				JOINT lowerneck
				{
					OFFSET 0 0 0
					CHANNELS 3 Zrotation Yrotation Xrotation
					JOINT Neck
					{
						OFFSET -0.02954 1.71757 0.03505
						CHANNELS 3 Zrotation Yrotation Xrotation
						JOINT Head
						{
							OFFSET 0.04170 1.65781 -0.11024
							CHANNELS 3 Zrotation Yrotation Xrotation
							End Site
							{
								OFFSET 0.01600 1.81465 -0.05144
							}
						}
					}
				}
				JOINT LeftCollar
				{
					OFFSET 0 0 0
					CHANNELS 3 Zrotation Yrotation Xrotation
					JOINT LeftShoulder
					{
						OFFSET 2.77679 1.60868 -0.78649
CHANNELS 3 Zrotation Xrotation Yrotation
						JOINT LeftElbow
						{
OFFSET 0 -4.626720 -0.000000
CHANNELS 3 Zrotation Xrotation Yrotation
							JOINT LeftWrist
							{
OFFSET 0 -3.110180 -0.000000
CHANNELS 3 Zrotation Xrotation Yrotation
								JOINT lhand
								{
									OFFSET 0 0 0
CHANNELS 3 Zrotation Xrotation Yrotation
									JOINT LFingers
									{
OFFSET 0 -0.743830 -0.000000
CHANNELS 3 Zrotation Xrotation Yrotation
										End Site
										{
OFFSET 0 -0.599700 -0.000000
										}
									}
								}
								JOINT LThumb
								{
OFFSET 0 0.000000 0.000000
CHANNELS 3 Zrotation Xrotation Yrotation
									End Site
									{
OFFSET 0 -0.608850 0.608850
									}
								}
							}
						}
					}
				}
				JOINT RightCollar
				{
					OFFSET 0 0 0
					CHANNELS 3 Zrotation Yrotation Xrotation
					JOINT RightShoulder
					{
						OFFSET -2.73247 1.63658 -0.74740
CHANNELS 3 Zrotation Xrotation Yrotation
						JOINT RightElbow
						{
OFFSET 0 -4.559190 -0.000000
CHANNELS 3 Zrotation Xrotation Yrotation
							JOINT RightWrist
							{
OFFSET 0 -3.227480 -0.000000
CHANNELS 3 Zrotation Xrotation Yrotation
								JOINT rhand
								{
									OFFSET 0 0 0
CHANNELS 3 Zrotation Xrotation Yrotation
									JOINT RFingers
									{
OFFSET 0 -0.700880 -0.000000
CHANNELS 3 Zrotation Xrotation Yrotation
										End Site
										{
OFFSET 0 -0.565070 -0.000000
										}
									}
								}
								JOINT RThumb
								{
OFFSET 0 0.000000 0.000000
CHANNELS 3 Zrotation Xrotation Yrotation
									End Site
									{
OFFSET 0 -0.573700 0.573700
									}
								}
							}
						}
					}
				}
			}
		}
	}
}
MOTION
Frames: 7
Frame Time: 0.008333333333333333
-0.321141 15.923786 -4.421362 -1.176123 -8.863361 20.010817 0.000000 0.000000 0.000000 -16.682471 -9.710961 -52.384840 1.318393 7.260484 20.494570 0.021086 0.805621 -3.087402 1.001422 -6.367237 -17.853967 0.000000 0.000000 0.000000 19.099008 -2.949790 -0.522219 -1.459748 -7.635852 21.613569 2.129113 27.469979 -2.268857 -0.113328 1.950232 -5.376909 -0.285744 3.543807 -18.512922 -0.220669 4.701430 -5.418864 0.956865 2.309020 4.503766 -0.003103 -0.614802 -5.832696 -0.629049 -0.763109 9.335905 -0.250165 -0.406340 4.092908 0.000000 0.000000 0.000000 -3.561648 26.589713 15.442824 6.523573 -11.132499 0.636572 10.763312 33.023089 16.292834 0.000000 0.000000 0.000000 -7.125000 0.000000 0.000000 -11.333918 13.640440 -8.512762 0.000000 0.000000 0.000000 -8.829990 -9.544209 33.131715 -40.108397 -48.133998 -18.519936 -20.149234 -4.573994 31.433643 0.000000 0.000000 0.000000 7.125000 0.000000 0.000000 14.090189 62.503983 -6.057102
-0.318789 15.928329 -4.269289 -1.366884 -8.913238 20.261092 0.000000 0.000000 0.000000 -16.006498 -10.111852 -52.957584 1.502686 7.733038 21.911083 0.009114 0.976340 -2.366539 0.821683 -5.727928 -16.011843 0.000000 0.000000 0.000000 19.110249 -2.684349 -0.528823 -1.515825 -7.773371 22.028631 2.226042 27.291859 -0.664634 -0.124783 2.114203 -5.827913 -0.185962 3.589823 -18.734469 -0.274413 4.745917 -5.521986 0.863675 2.330281 4.521888 0.024059 -0.642771 -6.048174 -0.453865 -0.820444 9.499690 -0.201319 -0.425539 4.195528 0.000000 0.000000 0.000000 -3.438337 26.526476 16.838056 6.399076 -10.926037 0.612805 10.804566 34.110338 16.492585 0.000000 0.000000 0.000000 -7.125000 0.000000 0.000000 -11.304319 13.438833 -8.538935 0.000000 0.000000 0.000000 -8.623969 -9.114951 32.995243 -40.084854 -48.120079 -18.502390 -20.055830 -4.506517 31.341648 0.000000 0.000000 0.000000 7.125000 0.000000 0.000000 14.127275 62.390283 -6.035570
-0.318148 15.925882 -4.129048 -1.424507 -8.856897 20.363287 0.000000 0.000000 0.000000 -15.358197 -10.669087 -53.322606 1.677944 8.158596 23.197839 0.001190 1.121766 -1.751332 0.565672 -4.805146 -13.356239 0.000000 0.000000 0.000000 19.096616 -2.307849 -0.334571 -1.585509 -7.943152 22.541586 2.174537 26.714698 0.087376 -0.238806 3.124439 -8.626788 -0.235137 3.562905 -18.702948 -0.336756 4.722728 -5.606411 0.814559 2.319968 4.417013 0.004832 -0.672952 -6.314090 -0.250175 -0.879407 9.693650 -0.135131 -0.445698 4.319746 0.000000 0.000000 0.000000 -3.334161 26.420961 18.321393 6.272993 -10.716696 0.588975 10.774909 35.240597 16.703209 0.000000 0.000000 0.000000 -7.125000 0.000000 0.000000 -11.321798 13.231822 -8.603025 0.000000 0.000000 0.000000 -8.417948 -8.723651 32.866306 -39.998624 -48.069098 -18.438183 -19.969250 -4.427394 31.238113 0.000000 0.000000 0.000000 7.125000 0.000000 0.000000 14.147959 62.267172 -6.003583
-0.307962 15.915401 -3.982174 -1.139826 -8.121447 20.141888 0.000000 0.000000 0.000000 -15.255977 -11.591867 -53.208845 1.855358 8.550022 24.402685 0.000384 0.756432 -1.157586 0.450832 -4.286357 -11.887053 0.000000 0.000000 0.000000 18.953674 -2.647502 -0.198665 -1.706797 -8.222127 23.393339 2.130797 26.000895 1.593557 -0.222981 3.035504 -8.377869 -0.357161 3.264376 -18.449749 -0.433123 4.359661 -5.627151 0.686931 2.143087 4.264794 -0.081313 -0.694289 -6.452909 -0.042926 -0.920899 9.806402 -0.053467 -0.459009 4.390365 0.000000 0.000000 0.000000 -3.324890 26.303043 20.258117 6.146317 -10.505898 0.565792 10.576527 36.754736 16.760313 0.000000 0.000000 0.000000 -7.125000 0.000000 0.000000 -11.452138 13.190679 -8.716509 0.000000 0.000000 0.000000 -8.182755 -8.230545 32.755109 -39.862676 -47.988190 -18.337201 -19.978761 -4.268736 30.976422 0.000000 0.000000 0.000000 7.125000 0.000000 0.000000 13.946102 62.013836 -5.833661
-0.297179 15.902737 -3.833146 -0.666819 -7.207866 19.780664 0.000000 0.000000 0.000000 -15.408341 -12.636717 -52.880051 2.030460 8.926805 25.568398 0.000066 0.316713 -0.588321 0.351499 -3.798698 -10.512283 0.000000 0.000000 0.000000 18.693737 -3.169622 -0.014746 -1.845218 -8.532291 24.345170 2.063929 25.180962 3.083825 -0.202237 2.895505 -7.987853 -0.619497 2.880490 -18.101124 -0.573117 3.909921 -5.607826 0.572579 1.923585 4.100635 -0.154870 -0.721544 -6.572649 0.166657 -0.972172 9.902197 0.026383 -0.476437 4.451160 0.000000 0.000000 0.000000 -3.293778 26.175315 22.246997 6.022128 -10.299078 0.543259 10.424097 38.398135 16.792702 0.000000 0.000000 0.000000 -7.125000 0.000000 0.000000 -11.552407 13.170491 -8.801015 0.000000 0.000000 0.000000 -7.928627 -7.705783 32.616786 -39.736803 -47.913184 -18.243727 -20.004502 -4.106611 30.710957 0.000000 0.000000 0.000000 7.125000 0.000000 0.000000 13.724588 61.760718 -5.656291
-0.287042 15.884267 -3.677990 0.414032 -5.827481 18.989267 0.000000 0.000000 0.000000 -16.357050 -14.031843 -51.883974 2.196162 9.258617 26.611087 -0.000575 -0.248795 -0.105081 0.267833 -3.305787 -9.133413 0.000000 0.000000 0.000000 18.030811 -4.163660 0.368455 -2.032711 -8.927145 25.572263 1.907258 24.001354 4.284408 -0.202411 2.896961 -7.991932 -1.390152 2.256543 -17.459174 -0.867699 3.235926 -5.456398 0.532319 1.593637 3.905742 -0.160463 -0.773865 -6.658938 0.383981 -1.065744 9.958596 0.094668 -0.511511 4.491129 0.000000 0.000000 0.000000 -3.151207 26.014274 24.295085 5.907523 -10.107740 0.522983 10.496752 40.413421 16.778369 0.000000 0.000000 0.000000 -7.125000 0.000000 0.000000 -11.504630 13.179056 -8.760930 0.000000 0.000000 0.000000 -7.611789 -7.092324 32.370505 -39.664148 -47.869603 -18.189833 -20.062358 -3.955592 30.479358 0.000000 0.000000 0.000000 7.125000 0.000000 0.000000 13.496485 61.548055 -5.492745
-0.288619 15.873062 -3.529552 1.218448 -5.235740 18.561109 0.000000 0.000000 0.000000 -17.043968 -14.824366 -51.368003 2.360457 9.575871 27.616934 -0.001101 -0.590330 0.118148 0.196197 -2.829415 -7.805568 0.000000 0.000000 0.000000 17.406708 -4.345422 0.336903 -2.254689 -9.367482 26.959526 1.737837 22.758201 5.892049 -0.197532 2.861520 -7.893413 -2.192479 1.915061 -17.098654 -1.121391 2.932922 -5.397173 0.639306 1.446630 3.752515 -0.153135 -0.843673 -6.746748 0.600673 -1.184297 9.988291 0.159020 -0.558330 4.522024 0.000000 0.000000 0.000000 -2.962979 25.787075 26.467191 5.784247 -9.901671 0.501587 10.574547 42.682055 16.674562 0.000000 0.000000 0.000000 -7.125000 0.000000 0.000000 -11.454385 13.276062 -8.697270 0.000000 0.000000 0.000000 -7.312466 -6.462555 32.093155 -39.613230 -47.839029 -18.152048 -20.120357 -3.832569 30.472164 0.000000 0.000000 0.000000 7.125000 0.000000 0.000000 13.426054 61.555632 -5.465506
